# xmcd
#
# Track frame offsets:
#  150
#  785
#  18257
#  31662
#  48794
#  66539
#  81439
#  97811
#  115661
#  137001
#  158711
#  170021
#
# Disc length: 2527 seconds
#
# Revision: 0
# Processed by: cddbd v1.5.1PL0 Copyright (c) Steve Scherf et al.
# Submitted via: Collectorz.com_Music_Collector 6.9
#
DISCID=8309dd0c
DTITLE=Midnight Rodeo - Saturday Night
DYEAR=2005
DGENRE=Country
TTITLE0=Intro
TTITLE1=Saturday Night
TTITLE2=Rodeo Girls
TTITLE3=You're In My Life
TTITLE4=What Comes Around (Goes Around)
TTITLE5=A Mother's Love
TTITLE6=Cinderella
TTITLE7=44 Caliber Love
TTITLE8=Get Away
TTITLE9=I'm There
TTITLE10=Get Down
TTITLE11=Glory Bound
EXTD=
EXTT0=
EXTT1=
EXTT2=
EXTT3=
EXTT4=
EXTT5=
EXTT6=
EXTT7=
EXTT8=
EXTT9=
EXTT10=
EXTT11=
PLAYORDER=
